<?xml version="1.0" encoding="utf-8"?>
<!-- Generator: Adobe Illustrator 21.1.0, SVG Export Plug-In . SVG Version: 6.00 Build 0)  -->
<svg version="1.1"
	 id="svg2" inkscape:export-filename="/var/www/topdoctors_new/trunk/app/webroot/css/main_nav_bar/top_doctors_en.png" inkscape:export-xdpi="25.048904" inkscape:export-ydpi="25.048904" inkscape:version="0.91 r13725" sodipodi:docname="top_doctors_en.svg" xmlns:cc="http://creativecommons.org/ns#" xmlns:dc="http://purl.org/dc/elements/1.1/" xmlns:inkscape="http://www.inkscape.org/namespaces/inkscape" xmlns:rdf="http://www.w3.org/1999/02/22-rdf-syntax-ns#" xmlns:sodipodi="http://sodipodi.sourceforge.net/DTD/sodipodi-0.dtd" xmlns:svg="http://www.w3.org/2000/svg"
	 xmlns="http://www.w3.org/2000/svg" xmlns:xlink="http://www.w3.org/1999/xlink" x="0px" y="0px" viewBox="0 0 260 44"
	 style="enable-background:new 0 0 260 44; " xml:space="preserve"  >
<style type="text/css">
	.st0{fill:#99999A;}
	.st1{fill:#003A5D;}
	.st2{fill:#003366;}
</style>
<sodipodi:namedview  bordercolor="#666666" borderopacity="1" fit-margin-bottom="0" fit-margin-left="0" fit-margin-right="0" fit-margin-top="0" gridtolerance="10" guidetolerance="10" id="namedview4" inkscape:current-layer="g10" inkscape:cx="210.1034" inkscape:cy="16.699025" inkscape:pageopacity="0" inkscape:pageshadow="2" inkscape:window-height="1056" inkscape:window-maximized="1" inkscape:window-width="450px" inkscape:window-x="45" inkscape:window-y="24" inkscape:zoom="3.3704129" objecttolerance="10" pagecolor="#ffffff" showgrid="false">
	</sodipodi:namedview>
<g>
	<g id="XMLID_157_">
		<path id="XMLID_170_" class="st0" d="M16.6,34c0,0-4.5-6.6-15.4-4.9C1.2,29.1,5.7,36,16.6,34z"/>
		<path id="XMLID_169_" class="st0" d="M10,28c0,0-0.9-8.9-10-12C0,16.1,1,25.9,10,28z"/>
		<path id="XMLID_168_" class="st0" d="M5.9,4.5c0,0-3.8,7.3,1.7,14.5C7.6,19.1,11.2,11.5,5.9,4.5z"/>
		<path id="XMLID_167_" class="st0" d="M15.9,0.1c0,0-6.7,4.7-5.2,13.1C10.8,13.2,17.5,10.2,15.9,0.1z"/>
		<path id="XMLID_166_" class="st0" d="M25.7,35.7c-1.6,0.4-2,0.4-2.7,0.4c-0.6,0-1.1-0.1-2.7-0.4c-1.8-0.4-8.5-0.8-12.9,3.5
			c0,0,3.3,1.7,7.9,0.7c2.6-0.6,3.4-1.7,3.9-1.1c0.3,0.4-0.4,1-1.3,1.7c-0.7,0.5-1.3,1-1.5,1.3c-0.1,0.1-0.1,0.2,0,0.3
			c0.2,0.3,0.7,0.7,1.1,0.9c0.1,0,0.2,0,0.3,0c0.5-0.2,2.2-1.5,3.4-3.2c1.3-1.9,1.8-1.8,1.9-1.8c0.1,0,0.6,0,1.9,1.8
			c1.2,1.7,2.8,2.9,3.4,3.2c0.1,0,0.2,0.1,0.3,0c0.3-0.1,0.8-0.6,1.1-0.9c0.1-0.1,0.1-0.2,0-0.3c-0.2-0.3-0.9-0.7-1.5-1.3
			c-0.9-0.7-1.6-1.3-1.3-1.7c0.5-0.6,1.3,0.5,3.9,1.1c4.6,1.1,7.9-0.7,7.9-0.7C34.2,34.9,27.5,35.3,25.7,35.7z"/>
		<path id="XMLID_165_" class="st0" d="M29.5,34c11,2,15.4-4.9,15.4-4.9C34,27.4,29.5,34,29.5,34z"/>
		<path id="XMLID_164_" class="st0" d="M46.1,16.1c-9.1,3-10,12-10,12C45.1,25.9,46.1,16.1,46.1,16.1z"/>
		<path id="XMLID_163_" class="st0" d="M40.3,4.5c-5.4,7-1.7,14.5-1.7,14.5C44.1,11.9,40.3,4.5,40.3,4.5z"/>
		<path id="XMLID_162_" class="st0" d="M35.4,13.2c1.5-8.4-5.2-13.1-5.2-13.1C28.6,10.2,35.4,13.2,35.4,13.2z"/>
		<g id="XMLID_158_">
			<path id="XMLID_161_" class="st1" d="M19.6,14c0.1,0.3,0.3,0.9,0.5,1.2l0.3,0.7l0,0.1c0.3,0.8,0.8,1.4,1.3,1.8
				c0.4,0.3,0.8,0.4,1.3,0.4c0.5,0,0.9-0.1,1.3-0.4c0,0,0.1,0,0.1-0.1c0.4-0.3,0.8-0.8,1.1-1.4c0-0.3,0.1-0.6,0.3-1
				c0.4-0.7,0.6-1.1,0.7-1.6c0.1-0.4,0.1-0.1,0.4-0.3c0.1-0.1,0.2-0.2,0.3-0.4c0.2-0.5,0.3-1.2,0.3-1.5c0-0.3,0-0.3-0.2-0.5
				c-0.2-0.1-0.2-0.2-0.1-0.3c0.1-0.4,0.1-1.1,0-1.5c0-0.3-0.1-0.7-0.2-1c-0.1-0.7-0.2-0.3-0.4-0.7C26.2,7,25.4,6.3,24.7,6
				c-0.5-0.2-1-0.3-1.6-0.3c-0.6,0-1.3,0.1-2.1,0.4c-0.5,0.2-0.6,0.1-1,0.1c-0.4,0-0.4,0-0.4,0.1c0,0.1-0.1,0.5-0.1,0.7
				c0,0.3-0.1,0-0.2,0.3c-0.3,0.8-0.5,2.8-0.4,3.6l-0.2,0.2c-0.2,0.2-0.2,0.3-0.2,0.5c0,0.6,0.3,1.6,0.7,2
				C19.4,13.8,19.4,13.6,19.6,14z"/>
			<path id="XMLID_160_" class="st2" d="M19,22.8c0,0-0.1,0-0.1,0c-0.2,0.1-0.3,0.3-0.3,0.5c0,0.2,0.2,0.3,0.3,0.4
				c0.2,0,0.4,0,0.5-0.2c0.1-0.2,0-0.5-0.2-0.6C19.1,22.8,19,22.8,19,22.8z"/>
			<path id="XMLID_159_" class="st1" d="M33.4,23.6c-0.6-1.9-1.7-3.1-3.3-4c-0.7-0.3-2-1.1-3-1.6c0.1,0.2,0.2,0.4,0.2,0.5
				c0,0.2,0,0.2,0.1,0.8c0,0.5,0,0.6,0,0.6c0,0,0.1,0,0.2,0.1c0.6,0.1,1.2,0.4,1.7,0.9c0.3,0.3,0.5,0.6,0.6,1.1l0,0.2v2v2L30,26.3
				c-0.1,0.1-0.2,0.2-0.4,0.2l-0.1,0l-0.1,0.1c-0.1,0.1-0.2,0.2-0.4,0.3c-0.1,0-0.1,0-0.3,0c-0.2,0-0.2,0-0.4-0.1
				c-0.2-0.1-0.3-0.2-0.4-0.4c-0.1-0.1-0.1-0.2-0.1-0.3c0-0.2,0-0.3,0.1-0.4c0.2-0.4,0.6-0.6,1-0.4c0.1,0,0.1,0,0.2,0
				c0,0,0-0.5,0-1.5c0-1.6,0-1.5-0.1-1.9c-0.3-0.5-0.8-0.9-1.6-1.1c-0.2,0-0.7,0-0.9,0c-0.6,0.1-1.1,0.4-1.4,0.8
				c-0.1,0.2-0.2,0.3-0.3,0.5c0,0.1,0,0.2,0,1.6c0,1,0,1.5,0,1.5c0,0,0.1,0,0.2,0c0.1,0,0.2,0,0.3,0c0.1,0,0.2,0,0.3,0
				c0.2,0.1,0.4,0.3,0.5,0.5c0,0.1,0.1,0.4,0,0.5c-0.1,0.2-0.2,0.5-0.5,0.6c-0.1,0.1-0.2,0.1-0.3,0.1c-0.1,0-0.2,0-0.3,0
				c-0.2,0-0.3-0.2-0.4-0.3l-0.1-0.1l-0.1,0c-0.2,0-0.3-0.1-0.4-0.2L24,26.2v-1.9c0-1.7,0-1.9,0-2.1c0.1-0.5,0.3-0.9,0.7-1.3
				c0.1-0.1,0.3-0.3,0.3-0.3c0.4-0.3,0.8-0.5,1.3-0.6c0.1,0,0.2,0,0.2,0c0,0,0-0.1,0-0.4c0-0.5,0-0.7-0.1-0.9
				c-0.1-0.4-0.4-0.7-0.7-0.9c-0.3,0.3-0.6,0.6-0.9,0.8c-0.1,0.3-0.3,0.6-0.4,0.8c-0.3,0.4-0.8,0.7-1.3,0.7c-0.6,0-1-0.3-1.3-0.7
				c-0.2-0.2-0.3-0.5-0.4-0.8c-0.3-0.2-0.6-0.5-0.8-0.8c-0.1,0-0.2,0.1-0.3,0.2c-0.4,0.3-0.6,0.6-0.7,0.9c0,0.1,0,0.2,0,1.6V22
				l0.2,0.1c0.3,0.2,0.5,0.4,0.6,0.7c0.1,0.2,0.1,0.5,0,0.7c-0.1,0.4-0.4,0.7-0.7,0.9c-0.2,0.1-0.3,0.1-0.6,0.1
				c-0.5,0-0.9-0.3-1.2-0.7c-0.1-0.2-0.1-0.4-0.1-0.6c0-0.3,0.1-0.4,0.2-0.6c0.1-0.2,0.3-0.3,0.5-0.5l0.1-0.1l0-1.5
				c0-1.5,0-1.5,0-1.7c0.1-0.3,0.2-0.6,0.4-0.9c-0.1,0.1-0.2,0.1-0.3,0.2c-0.9,0.5-1.9,1.1-2.4,1.3c-1,0.5-1.6,0.9-2.1,1.4
				c-0.5,0.5-0.8,1-1.2,1.6c-0.4,0.9-1,3.9-1,3.9s2.1,1.3,4.1,3.8c1,1.2,1.7,2,2.7,2.5h0c1,0.6,2.3,0.8,4.3,0.8c3.8,0,5-0.9,7-3.3
				c0.1-0.1,0.1-0.2,0.2-0.2c0.1-0.1,0.1-0.1,0.2-0.2c0-0.1,0.1-0.1,0.1-0.2c0.3-0.4,0.6-0.7,0.9-1c0,0,0.1-0.1,0.1-0.1
				c0.1-0.1,0.2-0.2,0.2-0.2c0,0,0,0,0,0c0.2-0.2,0.4-0.3,0.5-0.5c0.1-0.1,0.2-0.2,0.3-0.2c0.3-0.3,0.6-0.5,0.8-0.7
				c0,0,0.1-0.1,0.1-0.1c0,0,0.1-0.1,0.1-0.1c0.1-0.1,0.2-0.2,0.3-0.2c0,0,0,0,0,0C34.1,26.2,33.6,24.2,33.4,23.6z"/>
		</g>
	</g>
	<g id="XMLID_151_">
		<path id="XMLID_152_" class="st1" d="M257,6.3c0.4,0,0.8,0.1,1.2,0.2c0.4,0.2,0.7,0.4,1,0.7c0.3,0.3,0.5,0.6,0.6,1
			c0.1,0.4,0.2,0.7,0.2,1.1c0,0.4-0.1,0.8-0.2,1.2c-0.1,0.4-0.4,0.7-0.7,1c-0.3,0.3-0.6,0.5-1,0.7c-0.4,0.2-0.7,0.2-1.1,0.2
			c-0.4,0-0.8-0.1-1.1-0.2c-0.4-0.2-0.7-0.4-1-0.7c-0.3-0.3-0.5-0.6-0.6-1c-0.1-0.4-0.2-0.7-0.2-1.1c0-0.4,0.1-0.8,0.2-1.1
			c0.2-0.4,0.4-0.7,0.7-1c0.3-0.3,0.6-0.5,0.9-0.6C256.2,6.3,256.6,6.3,257,6.3z M257,6.7c-0.3,0-0.7,0.1-1,0.2
			c-0.3,0.1-0.6,0.3-0.8,0.5c-0.2,0.3-0.4,0.5-0.6,0.8c-0.1,0.3-0.2,0.6-0.2,1c0,0.3,0.1,0.7,0.2,1c0.1,0.3,0.3,0.6,0.5,0.8
			c0.2,0.2,0.5,0.4,0.8,0.6c0.3,0.1,0.6,0.2,0.9,0.2c0.3,0,0.7-0.1,1-0.2s0.6-0.3,0.8-0.6c0.2-0.2,0.4-0.5,0.6-0.8
			c0.1-0.3,0.2-0.6,0.2-1c0-0.4-0.1-0.7-0.2-1c-0.1-0.3-0.3-0.6-0.5-0.8c-0.3-0.2-0.5-0.4-0.8-0.6C257.7,6.8,257.4,6.7,257,6.7z
			 M255.8,7.5h1.3c0.5,0,0.8,0.1,1.1,0.2c0.2,0.2,0.4,0.4,0.4,0.7c0,0.2-0.1,0.4-0.2,0.6c-0.1,0.2-0.3,0.3-0.6,0.3l0.7,1.5h-0.8
			L257,9.5h-0.5v1.4h-0.7V7.5z M256.5,8V9h0.5c0.3,0,0.5,0,0.6-0.1c0.1-0.1,0.2-0.2,0.2-0.4c0-0.2-0.1-0.3-0.2-0.4
			C257.4,8,257.2,8,256.9,8H256.5z"/>
	</g>
	<g id="XMLID_124_">
		<path id="XMLID_149_" class="st1" d="M59.3,15H53v-3.2h16.1V15h-6.3v16.6h-3.5V15z"/>
		<path id="XMLID_146_" class="st1" d="M70.3,21.8L70.3,21.8c0-5.6,4.3-10.3,10.4-10.3c6.1,0,10.3,4.6,10.3,10.2v0.1
			C91,27.3,86.7,32,80.6,32C74.5,32,70.3,27.4,70.3,21.8z M87.3,21.8L87.3,21.8c0-3.9-2.8-7.1-6.7-7.1c-3.9,0-6.7,3.1-6.7,7v0.1
			c0,3.9,2.8,7.1,6.7,7.1C84.6,28.8,87.3,25.6,87.3,21.8z"/>
		<path id="XMLID_143_" class="st1" d="M94.7,11.8h7.8c4.6,0,7.5,2.6,7.5,6.6v0.1c0,4.5-3.6,6.8-7.9,6.8h-3.9v6.4h-3.5V11.8z
			 M102.2,22.1c2.6,0,4.3-1.5,4.3-3.5v-0.1c0-2.3-1.7-3.5-4.3-3.5h-4.1v7.1H102.2z"/>
		<path id="XMLID_140_" class="st0" d="M113,11.8h7.4c6.2,0,10.5,4.3,10.5,9.9v0.1c0,5.6-4.3,9.9-10.5,9.9H113V11.8z M120.4,28.5
			c4.2,0,6.9-2.8,6.9-6.7v-0.1c0-3.9-2.7-6.7-6.9-6.7h-3.9v13.5H120.4z"/>
		<path id="XMLID_137_" class="st0" d="M133.7,21.8L133.7,21.8c0-5.6,4.3-10.3,10.4-10.3c6.1,0,10.3,4.6,10.3,10.2v0.1
			c0,5.6-4.3,10.3-10.4,10.3C138,32,133.7,27.4,133.7,21.8z M150.8,21.8L150.8,21.8c0-3.9-2.8-7.1-6.7-7.1c-3.9,0-6.7,3.1-6.7,7v0.1
			c0,3.9,2.8,7.1,6.7,7.1C148.1,28.8,150.8,25.6,150.8,21.8z"/>
		<path id="XMLID_135_" class="st0" d="M157.3,21.8L157.3,21.8c0-5.7,4.2-10.3,10.2-10.3c3.7,0,5.9,1.3,7.8,3.1l-2.2,2.6
			c-1.6-1.5-3.3-2.5-5.6-2.5c-3.8,0-6.5,3.1-6.5,7v0.1c0,3.9,2.7,7.1,6.5,7.1c2.4,0,4-1,5.7-2.6l2.2,2.3c-2.1,2.2-4.3,3.5-8.1,3.5
			C161.6,32,157.3,27.5,157.3,21.8z"/>
		<path id="XMLID_133_" class="st0" d="M183.4,15h-6.3v-3.2h16.1V15h-6.3v16.6h-3.5V15z"/>
		<path id="XMLID_130_" class="st0" d="M194.4,21.8L194.4,21.8c0-5.6,4.3-10.3,10.4-10.3c6.1,0,10.3,4.6,10.3,10.2v0.1
			c0,5.6-4.3,10.3-10.4,10.3C198.6,32,194.4,27.4,194.4,21.8z M211.4,21.8L211.4,21.8c0-3.9-2.8-7.1-6.7-7.1c-3.9,0-6.7,3.1-6.7,7
			v0.1c0,3.9,2.8,7.1,6.7,7.1C208.7,28.8,211.4,25.6,211.4,21.8z"/>
		<path id="XMLID_127_" class="st0" d="M218.8,11.8h8.8c2.5,0,4.5,0.7,5.7,2c1,1.1,1.6,2.6,1.6,4.3v0.1c0,3.3-2,5.2-4.7,6l5.4,7.5
			h-4.1l-4.9-6.9h-4.4v6.9h-3.5V11.8z M227.3,21.6c2.5,0,4.1-1.3,4.1-3.3v-0.1c0-2.1-1.5-3.3-4.1-3.3h-5.1v6.7H227.3z"/>
		<path id="XMLID_125_" class="st1" d="M237.4,28.8l2.1-2.5c1.9,1.6,3.8,2.6,6.3,2.6c2.2,0,3.5-1,3.5-2.5v-0.1c0-1.4-0.8-2.2-4.5-3
			c-4.2-1-6.6-2.3-6.6-5.9v-0.1c0-3.4,2.8-5.8,6.8-5.8c2.9,0,5.2,0.9,7.2,2.5l-1.9,2.6c-1.8-1.3-3.6-2-5.4-2c-2,0-3.2,1-3.2,2.4V17
			c0,1.5,0.9,2.2,4.7,3.1c4.2,1,6.4,2.5,6.4,5.8V26c0,3.7-2.9,5.9-7.1,5.9C242.6,31.9,239.7,30.9,237.4,28.8z"/>
	</g>
	<g>
		<path class="st1" d="M220.7,40.4h-3.1v2.9h3.6v0.5H217v-7h4.2v0.5h-3.6v2.6h3.1V40.4z"/>
		<path class="st1" d="M226.6,42.1c0-0.4-0.1-0.7-0.4-0.9c-0.3-0.2-0.8-0.5-1.5-0.7c-0.7-0.2-1.3-0.5-1.7-0.8
			c-0.4-0.3-0.6-0.7-0.6-1.2c0-0.5,0.2-1,0.7-1.3s1-0.5,1.7-0.5c0.7,0,1.3,0.2,1.7,0.6c0.4,0.4,0.6,0.9,0.6,1.5l0,0h-0.5
			c0-0.5-0.2-0.8-0.5-1.1s-0.8-0.5-1.3-0.5c-0.5,0-1,0.1-1.3,0.4c-0.3,0.3-0.5,0.6-0.5,1c0,0.4,0.1,0.6,0.4,0.9
			c0.3,0.2,0.8,0.4,1.5,0.6c0.7,0.2,1.3,0.5,1.7,0.8c0.4,0.3,0.6,0.7,0.6,1.3c0,0.5-0.2,1-0.7,1.3c-0.5,0.3-1,0.5-1.7,0.5
			s-1.3-0.2-1.8-0.5c-0.5-0.4-0.8-0.9-0.7-1.5l0,0h0.5c0,0.5,0.2,0.9,0.6,1.2c0.4,0.3,0.9,0.4,1.4,0.4c0.5,0,1-0.1,1.3-0.4
			C226.4,42.8,226.6,42.5,226.6,42.1z"/>
		<path class="st1" d="M229.4,40.9v2.9h-0.6v-7h2.4c0.7,0,1.3,0.2,1.7,0.6c0.4,0.4,0.6,0.9,0.6,1.5c0,0.6-0.2,1.1-0.6,1.5
			s-1,0.6-1.7,0.6H229.4z M229.4,40.4h1.8c0.6,0,1-0.1,1.3-0.4c0.3-0.3,0.4-0.7,0.4-1.1c0-0.4-0.1-0.8-0.4-1.1s-0.7-0.4-1.3-0.4
			h-1.8V40.4z"/>
		<path class="st1" d="M238.2,41.9h-3.1l-0.7,2h-0.6l2.6-7h0.5l2.6,7h-0.6L238.2,41.9z M235.3,41.4h2.7l-1.3-3.7h0L235.3,41.4z"/>
		<path class="st1" d="M245.9,43.8h-0.6l-4-6l0,0v6h-0.6v-7h0.6l4,6l0,0v-6h0.6V43.8z M244.9,35.1c0,0.3-0.1,0.5-0.3,0.7
			c-0.2,0.2-0.4,0.3-0.7,0.3c-0.2,0-0.5-0.1-0.7-0.3c-0.2-0.2-0.5-0.3-0.6-0.3c-0.2,0-0.3,0.1-0.4,0.2c-0.1,0.1-0.2,0.3-0.2,0.4
			l-0.4-0.1c0-0.3,0.1-0.5,0.3-0.7c0.2-0.2,0.4-0.3,0.7-0.3c0.2,0,0.4,0.1,0.7,0.3c0.3,0.2,0.5,0.3,0.6,0.3c0.1,0,0.3-0.1,0.4-0.2
			c0.1-0.1,0.2-0.3,0.2-0.4L244.9,35.1z"/>
		<path class="st1" d="M251.7,41.9h-3.1l-0.7,2h-0.6l2.6-7h0.5l2.6,7h-0.6L251.7,41.9z M248.8,41.4h2.7l-1.3-3.7h0L248.8,41.4z"/>
	</g>
</g>
</svg>
